<svg width="119" height="28" viewBox="0 0 119 28" fill="none" xmlns="http://www.w3.org/2000/svg">
<path fill-rule="evenodd" clip-rule="evenodd" d="M38.4691 27.7668H30.8142L30.5438 22.3612H23.9717L21.4587 27.7668H20.2211L21.8622 19.9101H17.9567L28.4947 0.155471H35.4149L38.4691 27.7668ZM26.1366 17.3057H30.4278L30.1184 8.75002L26.1366 17.3057Z" fill="#73BF43"/>
<path d="M5.83764 0.155434H13.3763L8.93043 21.1556H20.4897L19.098 27.7668H0L5.83764 0.155434Z" fill="#73BF43"/>
<path d="M64.301 6.7666H56.917L58.3088 0.155434H80.5769L79.1851 6.7666H71.8397L67.3938 27.7668H59.8552L64.301 6.7666Z" fill="#73BF43"/>
<path fill-rule="evenodd" clip-rule="evenodd" d="M111.964 0.155471C113.433 0.155488 114.696 0.544332 115.753 1.3221C116.809 2.07396 117.608 3.05933 118.149 4.27784C118.716 5.49634 119 6.77971 119 8.12784C119 9.47596 118.716 10.8111 118.149 12.1333C117.582 13.4555 116.796 14.6612 115.791 15.7501C114.786 16.8131 113.626 17.6687 112.312 18.3169C110.997 18.965 109.593 19.2888 108.098 19.2888H104.155L102.376 27.7668H94.8376L95.482 24.7173C96.542 23.7891 97.492 22.7663 98.3316 21.6482C99.4512 20.1291 100.319 18.5114 100.935 16.7954C101.578 15.0512 101.9 13.2789 101.9 11.4785C101.9 9.84692 101.648 8.28567 101.145 6.79476C100.829 5.78659 100.401 4.85309 99.8635 3.9936L100.675 0.155471H111.964ZM105.585 12.6777H108.987C109.219 12.6777 109.464 12.6001 109.722 12.4445C109.979 12.289 110.224 12.0554 110.456 11.7443C110.714 11.4073 110.907 10.9925 111.036 10.5C111.191 10.0074 111.268 9.42407 111.268 8.75002C111.268 8.23156 111.203 7.8297 111.075 7.54452C110.946 7.25933 110.791 7.06461 110.611 6.96091C110.43 6.83133 110.237 6.76657 110.031 6.76657H106.822L105.585 12.6777Z" fill="#73BF43"/>
<path fill-rule="evenodd" clip-rule="evenodd" d="M89.7827 0C91.4837 0 92.9916 0.323839 94.3061 0.971994C95.6205 1.59422 96.7287 2.44988 97.6308 3.53876C98.5328 4.62764 99.2027 5.87216 99.6409 7.27215C100.105 8.64623 100.337 10.0851 100.337 11.5889C100.337 13.2481 100.04 14.8815 99.4477 16.4889C98.8807 18.0703 98.0818 19.5611 97.0509 20.9611C96.02 22.3351 94.8085 23.5538 93.4168 24.6167C92.025 25.6797 90.5043 26.5094 88.8548 27.1057C87.2053 27.702 85.4915 28 83.7132 28C82.0122 28 80.4914 27.6891 79.1512 27.0669C77.8368 26.4187 76.7285 25.5501 75.8265 24.4612C74.9244 23.3723 74.2414 22.1408 73.7775 20.7667C73.3135 19.3667 73.0817 17.9148 73.0817 16.4111C73.0817 14.7519 73.3653 13.1185 73.9323 11.5111C74.4293 10.1635 75.0805 8.89814 75.8855 7.71453H80.2817L81.4547 2.42405C82.4639 1.80761 83.5259 1.2974 84.6411 0.894258C86.2905 0.297994 88.0044 3.99207e-06 89.7827 0ZM88.2363 6.7277C87.025 6.72771 85.9553 7.01303 85.0275 7.58339C84.0997 8.12783 83.3265 8.8538 82.708 9.76118C82.0895 10.6686 81.6125 11.6537 81.2775 12.7166C80.9682 13.7796 80.8135 14.8167 80.8135 15.8278C80.8135 16.7871 80.9553 17.6816 81.2388 18.5112C81.5481 19.3408 82.025 20.015 82.6694 20.5335C83.3137 21.0261 84.1515 21.2723 85.1823 21.2723C86.4194 21.2723 87.502 20.987 88.4298 20.4166C89.3575 19.8462 90.1307 19.1073 90.7493 18.2C91.3936 17.2666 91.8705 16.2686 92.1798 15.2056C92.4891 14.1427 92.6434 13.1056 92.6434 12.0944C92.6434 11.1352 92.489 10.2536 92.1798 9.44994C91.8963 8.6203 91.4322 7.95908 90.7879 7.46649C90.1436 6.97392 89.2929 6.7277 88.2363 6.7277Z" fill="#73BF43"/>
<path fill-rule="evenodd" clip-rule="evenodd" d="M53.9741 0.155471C55.0822 0.155484 56.0729 0.376993 56.9463 0.819489L55.3875 7.71453H61.0005C61.0064 7.85163 61.0102 7.98937 61.0102 8.12784C61.0102 9.47596 60.7265 10.8111 60.1595 12.1333C59.5925 13.4555 58.8066 14.6612 57.8014 15.7501C56.7963 16.8131 55.6363 17.6687 54.3219 18.3169C53.0075 18.965 51.6027 19.2888 50.1079 19.2888H46.1647L44.3864 27.7668H39.8359L38.8098 18.4881L42.6854 0.155471H53.9741ZM47.5952 12.6777H50.9972C51.2291 12.6777 51.4742 12.6001 51.7319 12.4445C51.9896 12.289 52.2344 12.0554 52.4663 11.7443C52.724 11.4073 52.9173 10.9925 53.0462 10.5C53.2008 10.0074 53.278 9.42407 53.278 8.75002C53.278 8.23156 53.2137 7.8297 53.0848 7.54452C52.956 7.25933 52.8013 7.06461 52.6209 6.96091C52.4405 6.83133 52.2472 6.76657 52.041 6.76657H48.8322L47.5952 12.6777Z" fill="#73BF43"/>
</svg>
