<svg width="25" height="24" viewBox="0 0 25 24" fill="none" xmlns="http://www.w3.org/2000/svg">
<g clip-path="url(#clip0_3018_345)">
<path d="M4.24999 6.41402L1.00699 3.17202L2.42199 1.75702L5.66399 5.00002H20.906C21.0619 5.00001 21.2156 5.03643 21.3549 5.10639C21.4941 5.17634 21.6152 5.27788 21.7082 5.40292C21.8013 5.52795 21.8638 5.673 21.8909 5.82651C21.9179 5.98001 21.9087 6.13771 21.864 6.28702L19.464 14.287C19.4022 14.4931 19.2757 14.6738 19.1031 14.8022C18.9305 14.9307 18.7211 15 18.506 15H6.24999V17H17.25V19H5.24999C4.98477 19 4.73042 18.8947 4.54288 18.7071C4.35535 18.5196 4.24999 18.2652 4.24999 18V6.41402ZM5.74999 23C5.35216 23 4.97063 22.842 4.68933 22.5607C4.40802 22.2794 4.24999 21.8978 4.24999 21.5C4.24999 21.1022 4.40802 20.7207 4.68933 20.4394C4.97063 20.1581 5.35216 20 5.74999 20C6.14781 20 6.52934 20.1581 6.81065 20.4394C7.09195 20.7207 7.24999 21.1022 7.24999 21.5C7.24999 21.8978 7.09195 22.2794 6.81065 22.5607C6.52934 22.842 6.14781 23 5.74999 23ZM17.75 23C17.3522 23 16.9706 22.842 16.6893 22.5607C16.408 22.2794 16.25 21.8978 16.25 21.5C16.25 21.1022 16.408 20.7207 16.6893 20.4394C16.9706 20.1581 17.3522 20 17.75 20C18.1478 20 18.5293 20.1581 18.8106 20.4394C19.092 20.7207 19.25 21.1022 19.25 21.5C19.25 21.8978 19.092 22.2794 18.8106 22.5607C18.5293 22.842 18.1478 23 17.75 23Z" fill="#73BF43"/>
</g>
<defs>
<clipPath id="clip0_3018_345">
<rect width="24" height="24" fill="white" transform="translate(0.25)"/>
</clipPath>
</defs>
</svg>
